<svg id="Layer_3" height="512" viewBox="0 0 64 64" width="512" xmlns="http://www.w3.org/2000/svg" data-name="Layer 3"><path d="m42 32h-6v2.425a10.91 10.91 0 0 0 -2.359.973l-1.712-1.712-4.243 4.243 1.714 1.712a10.91 10.91 0 0 0 -.975 2.359h-2.425v6h2.425a10.91 10.91 0 0 0 .973 2.359l-1.712 1.712 4.243 4.243 1.712-1.714a10.91 10.91 0 0 0 2.359.975v2.425h1v4h-17v-10h-11v-13h-7l7-15a13 13 0 0 1 13-13h10a10 10 0 0 1 10 10z" fill="#fbe1ca"/><path d="m52 48v-6h-2.425a10.91 10.91 0 0 0 -.973-2.359l1.712-1.712-4.243-4.243-1.712 1.714a10.91 10.91 0 0 0 -2.359-.975v-2.425h-6v2.425a10.91 10.91 0 0 0 -2.359.973l-1.712-1.712-4.243 4.243 1.714 1.712a10.91 10.91 0 0 0 -.975 2.359h-2.425v6h2.425a10.91 10.91 0 0 0 .973 2.359l-1.712 1.712 4.243 4.243 1.712-1.714a10.91 10.91 0 0 0 2.359.975v2.425h6v-2.425a10.91 10.91 0 0 0 2.359-.973l1.712 1.712 4.243-4.243-1.714-1.712a10.91 10.91 0 0 0 .975-2.359z" fill="#686868"/><path d="m37 51.71v-4.71l4.306-8.611a7 7 0 0 1 -4.306 13.321z" fill="#f2f2f2"/><path d="m41.306 38.389a7 7 0 1 0 -4.306 13.321v-4.71z" fill="#fbe1ca"/><g fill="#ccc"><path d="m12.656 3.634h2v20.044h-2z" transform="matrix(.707 -.707 .707 .707 -5.656 13.655)"/><path d="m26.753 12.507h19.481v2h-19.481z" transform="matrix(.707 -.707 .707 .707 1.138 29.761)"/><path d="m25 7h2v10h-2z"/></g><path d="m31 20c-.034 0-.066.009-.1.01a5 5 0 0 0 -9.8 0c-.034 0-.066-.01-.1-.01a5 5 0 1 0 1.429 9.768 3.973 3.973 0 0 0 7.142 0 4.99 4.99 0 1 0 1.429-9.768z" fill="#f29b99"/><path d="m27 26a6.006 6.006 0 0 1 -6-6h2a4 4 0 0 0 4 4z" fill="#e1656e"/><circle cx="26" cy="5" fill="#f0ae42" r="3"/><circle cx="5" cy="5" fill="#f0ae42" r="3"/><path d="m27.569 2.454a2.99 2.99 0 0 0 -4.088 4.166h2.088a2 2 0 0 0 2-2z" fill="#f9d266"/><path d="m6.569 2.454a2.99 2.99 0 0 0 -4.088 4.166h2.088a2 2 0 0 0 2-2z" fill="#f9d266"/><circle cx="45" cy="5" fill="#f0ae42" r="3"/><path d="m46.569 2.454a2.99 2.99 0 0 0 -4.088 4.166h2.088a2 2 0 0 0 2-2z" fill="#f9d266"/><path d="m35 28a5 5 0 0 0 0-6h13v-2a2 2 0 0 1 2-2h10a2 2 0 0 1 2 2v10a2 2 0 0 1 -2 2h-10a2 2 0 0 1 -2-2v-2z" fill="#f0ae42"/><path d="" fill="#f9d266"/><path d="m59 18h-9a2 2 0 0 0 -2 2v2h-13a4.976 4.976 0 0 1 1 3 4.918 4.918 0 0 1 -.112 1h23.112z" fill="#f9d266"/><path d="m57 23h2v4h-2z" fill="#fce797"/><path d="m60 17h-10a3 3 0 0 0 -3 3v1h-4a10.977 10.977 0 0 0 -4.061-8.525l4.042-4.042a3.947 3.947 0 0 0 2.019.567 4 4 0 1 0 -4-4 3.947 3.947 0 0 0 .567 2.019l-4.317 4.317a10.937 10.937 0 0 0 -5.25-1.336h-5v-1.142a4 4 0 1 0 -2 0v1.142h-3a13.9 13.9 0 0 0 -8.032 2.554l-5.535-5.535a3.947 3.947 0 0 0 .567-2.019 4 4 0 1 0 -4 4 3.947 3.947 0 0 0 2.019-.567l5.391 5.391a13.954 13.954 0 0 0 -4.41 9.95l-6.908 14.8a1 1 0 0 0 .908 1.426h6v12a1 1 0 0 0 1 1h10v9a1 1 0 0 0 1 1h17a1 1 0 0 0 1-1v-3h4a1 1 0 0 0 1-1v-1.693a12.1 12.1 0 0 0 1.169-.482l1.2 1.2a1 1 0 0 0 1.414 0l4.243-4.243a1 1 0 0 0 0-1.414l-1.2-1.2a11.881 11.881 0 0 0 .481-1.168h1.693a1 1 0 0 0 1-1v-6a1 1 0 0 0 -1-1h-1.693a12 12 0 0 0 -.482-1.169l1.2-1.2a1 1 0 0 0 0-1.414l-4.243-4.243a1 1 0 0 0 -1.414 0l-1.2 1.2a11.983 11.983 0 0 0 -1.168-.481v-4.693h4v1a3 3 0 0 0 3 3h10a3 3 0 0 0 3-3v-10a3 3 0 0 0 -3-3zm-15-14a2 2 0 1 1 -2 2 2 2 0 0 1 2-2zm-21 2a2 2 0 1 1 2 2 2 2 0 0 1 -2-2zm-21 0a2 2 0 1 1 2 2 2 2 0 0 1 -2-2zm38 16h-5.533a5.993 5.993 0 0 0 -3.212-1.842l5.258-5.258a8.983 8.983 0 0 1 3.487 7.1zm-20.893.106a6.006 6.006 0 0 0 5.893 4.894v-2a3.992 3.992 0 0 1 -3.967-3.672 1.029 1.029 0 0 0 .047-.12 4 4 0 0 1 7.84 0 1 1 0 0 0 .98.8 1.1 1.1 0 0 0 .145-.01 4 4 0 0 1 -.045 8.002 3.962 3.962 0 0 1 -1.142-.19 1 1 0 0 0 -1.182.513 2.974 2.974 0 0 1 -5.352 0 1 1 0 0 0 -.9-.555.973.973 0 0 0 -.287.042 3.962 3.962 0 0 1 -1.137.19 4 4 0 0 1 -.893-7.894zm11.893-9.106a8.932 8.932 0 0 1 3.754.831l-4.806 4.806a6.015 6.015 0 0 0 -3.948-2.549v-3.088zm-10 0h3v3.088a6.021 6.021 0 0 0 -4.633 3.865l-4.967-4.965a11.923 11.923 0 0 1 6.6-1.988zm21.871 24.271a1 1 0 0 0 1.2-.166l1-1 2.829 2.824-1 1a1 1 0 0 0 -.166 1.2 9.948 9.948 0 0 1 .884 2.144 1 1 0 0 0 .962.727h1.42v4h-1.425a1 1 0 0 0 -.962.727 9.939 9.939 0 0 1 -.884 2.144 1 1 0 0 0 .166 1.2l1 1-2.824 2.829-1-1a1 1 0 0 0 -1.2-.166 9.973 9.973 0 0 1 -2.143.884 1 1 0 0 0 -.728.962v1.42h-4v-1.425a1 1 0 0 0 -.728-.962 9.973 9.973 0 0 1 -2.143-.884 1 1 0 0 0 -1.2.166l-1 1-2.829-2.824 1-1a1 1 0 0 0 .166-1.2 9.939 9.939 0 0 1 -.884-2.144 1 1 0 0 0 -.957-.727h-1.425v-4h1.425a1 1 0 0 0 .962-.727 9.948 9.948 0 0 1 .884-2.144 1 1 0 0 0 -.166-1.2l-1-1 2.824-2.829 1 1a1 1 0 0 0 1.2.166 9.973 9.973 0 0 1 2.143-.884 1 1 0 0 0 .728-.957v-1.425h4v1.425a1 1 0 0 0 .728.962 9.973 9.973 0 0 1 2.143.884zm-2.871-5.271h-5a1 1 0 0 0 -1 1v1.693a11.983 11.983 0 0 0 -1.168.482l-1.2-1.2a1.029 1.029 0 0 0 -1.414 0l-4.243 4.243a1 1 0 0 0 0 1.414l1.2 1.2a12 12 0 0 0 -.482 1.168h-1.693a1 1 0 0 0 -1 1v6a1 1 0 0 0 1 1h1.693a11.881 11.881 0 0 0 .482 1.168l-1.2 1.2a1 1 0 0 0 0 1.414l4.243 4.243a1 1 0 0 0 1.414 0l1.2-1.2a12.1 12.1 0 0 0 1.168.482v1.693a1 1 0 0 0 1 1v2h-15v-9a1 1 0 0 0 -1-1h-10v-12a1 1 0 0 0 -1-1h-5.43l6.336-13.577a1 1 0 0 0 .094-.423 11.953 11.953 0 0 1 3.826-8.76l4.428 4.428a6 6 0 0 0 2.746 11.332 5.32 5.32 0 0 0 .952-.088 4.968 4.968 0 0 0 8.1 0 5.312 5.312 0 0 0 .948.088 5.983 5.983 0 0 0 4.46-2h5.54zm20-1a1 1 0 0 1 -1 1h-10a1 1 0 0 1 -1-1v-2a1 1 0 0 0 -1-1h-11.35a5.827 5.827 0 0 0 -.008-4h11.358a1 1 0 0 0 1-1v-2a1 1 0 0 1 1-1h10a1 1 0 0 1 1 1z"/><path d="m57 23h2v4h-2z"/><path d="m31 45a8 8 0 1 0 8-8 8.009 8.009 0 0 0 -8 8zm2 0a6.006 6.006 0 0 1 6-6 5.927 5.927 0 0 1 .848.067l-3.748 7.486a1 1 0 0 0 -.1.447v3.188a6 6 0 0 1 -3-5.188zm12 0a5.967 5.967 0 0 1 -7 5.91v-3.674l3.775-7.55a6 6 0 0 1 3.225 5.314z"/></svg>