<svg height="496pt" viewBox="0 0 496 496" width="496pt" xmlns="http://www.w3.org/2000/svg"><path d="m168 408c0 44.183594-35.816406 80-80 80s-80-35.816406-80-80 35.816406-80 80-80 80 35.816406 80 80zm0 0" fill="#5789d6"/><path d="m144 408c0 30.929688-25.070312 56-56 56s-56-25.070312-56-56 25.070312-56 56-56 56 25.070312 56 56zm0 0" fill="#699ce6"/><path d="m488 408c0 44.183594-35.816406 80-80 80s-80-35.816406-80-80 35.816406-80 80-80 80 35.816406 80 80zm0 0" fill="#599072"/><path d="m464 408c0 30.929688-25.070312 56-56 56s-56-25.070312-56-56 25.070312-56 56-56 56 25.070312 56 56zm0 0" fill="#70b48f"/><path d="m328 296c0 44.183594-35.816406 80-80 80s-80-35.816406-80-80 35.816406-80 80-80 80 35.816406 80 80zm0 0" fill="#eebc5a"/><path d="m304 296c0 30.929688-25.070312 56-56 56s-56-25.070312-56-56 25.070312-56 56-56 56 25.070312 56 56zm0 0" fill="#f8cf6a"/><path d="m288 200v-104c0-22.089844-17.910156-40-40-40s-40 17.910156-40 40v104h-48v-104c0-48.601562 39.398438-88 88-88s88 39.398438 88 88v104zm0 0" fill="#dc6068"/><path d="m288 152h48v48h-48zm0 0" fill="#d9d7d8"/><path d="m160 152h48v48h-48zm0 0" fill="#d9d7d8"/><path d="m336 208h-48c-4.425781 0-8-3.574219-8-8v-104c0-17.648438-14.351562-32-32-32s-32 14.351562-32 32v104c0 4.425781-3.574219 8-8 8h-48c-4.425781 0-8-3.574219-8-8v-104c0-52.9375 43.0625-96 96-96s96 43.0625 96 96v104c0 4.425781-3.574219 8-8 8zm-40-16h32v-96c0-44.113281-35.886719-80-80-80s-80 35.886719-80 80v96h32v-96c0-26.472656 21.527344-48 48-48s48 21.527344 48 48zm0 0"/><path d="m160 144h48v16h-48zm0 0"/><path d="m288 144h48v16h-48zm0 0"/><path d="m248 336h-24v-16h24c4.414062 0 8-3.585938 8-8s-3.585938-8-8-8c-13.230469 0-24-10.769531-24-24s10.769531-24 24-24h24v16h-24c-4.414062 0-8 3.585938-8 8s3.585938 8 8 8c13.230469 0 24 10.769531 24 24s-10.769531 24-24 24zm0 0"/><path d="m240 240h16v24h-16zm0 0"/><path d="m240 328h16v24h-16zm0 0"/><path d="m248 384c-48.519531 0-88-39.480469-88-88s39.480469-88 88-88 88 39.480469 88 88-39.480469 88-88 88zm0-160c-39.703125 0-72 32.296875-72 72s32.296875 72 72 72 72-32.296875 72-72-32.296875-72-72-72zm0 0"/><path d="m408 496c-48.519531 0-88-39.480469-88-88s39.480469-88 88-88 88 39.480469 88 88-39.480469 88-88 88zm0-160c-39.703125 0-72 32.296875-72 72s32.296875 72 72 72 72-32.296875 72-72-32.296875-72-72-72zm0 0"/><path d="m88 496c-48.519531 0-88-39.480469-88-88s39.480469-88 88-88 88 39.480469 88 88-39.480469 88-88 88zm0-160c-39.703125 0-72 32.296875-72 72s32.296875 72 72 72 72-32.296875 72-72-32.296875-72-72-72zm0 0"/><path d="m104 416h-48c-4.425781 0-8-3.574219-8-8v-32c0-4.425781 3.574219-8 8-8h48c13.230469 0 24 10.769531 24 24s-10.769531 24-24 24zm-40-16h40c4.414062 0 8-3.585938 8-8s-3.585938-8-8-8h-40zm0 0"/><path d="m104 448h-48c-4.425781 0-8-3.574219-8-8v-32c0-4.425781 3.574219-8 8-8h48c13.230469 0 24 10.769531 24 24s-10.769531 24-24 24zm-40-16h40c4.414062 0 8-3.585938 8-8s-3.585938-8-8-8h-40zm0 0"/><path d="m96 352h16v24h-16zm0 0"/><path d="m64 352h16v24h-16zm0 0"/><path d="m64 440h16v24h-16zm0 0"/><path d="m96 440h16v24h-16zm0 0"/><path d="m416 464c-26.472656 0-48-25.128906-48-56s21.527344-56 48-56c6.871094 0 13.503906 1.648438 19.71875 4.902344l-7.4375 14.167968c-3.890625-2.039062-8.023438-3.070312-12.28125-3.070312-17.648438 0-32 17.945312-32 40s14.351562 40 32 40c4.257812 0 8.390625-1.03125 12.28125-3.078125l7.4375 14.167969c-6.214844 3.261718-12.847656 4.910156-19.71875 4.910156zm0 0"/><path d="m352 384h56v16h-56zm0 0"/><path d="m352 416h56v16h-56zm0 0"/><path d="m224 400h16v64h-16zm0 0"/><path d="m256 432h16v64h-16zm0 0"/><path d="m64 208h16v64h-16zm0 0"/><path d="m96 240h16v64h-16zm0 0"/><path d="m384 208h16v64h-16zm0 0"/><path d="m416 240h16v64h-16zm0 0"/></svg>