<svg height="512" viewBox="0 0 512 512" width="512" xmlns="http://www.w3.org/2000/svg"><g id="Fill_out_line" data-name="Fill out line"><path d="m488 296-72 32-10.66992 10.66992-26.58008-2.66992 5.25-24 16-32 4.35986-13.07007a15.988 15.988 0 0 1 31.15014 4.67017c.01.11987.01.23.01.34985a16.13712 16.13712 0 0 1 -.49 3.92017l-3.58 14.32988 24.86011-9.32007a24.38271 24.38271 0 0 1 31.68989 15.12007z" fill="#f4ceaf"/><path d="m24 296 72 32 10.66992 10.66992 26.58008-2.66992-5.25-24-16-32-4.35986-13.07007a15.988 15.988 0 0 0 -31.15014 4.67017c-.01.11987-.01.23-.01.34985a16.13712 16.13712 0 0 0 .49 3.92017l3.58005 14.32988-24.86011-9.32007a24.38271 24.38271 0 0 0 -31.68994 15.12007z" fill="#f4ceaf"/><rect fill="#f2c194" height="32" rx="16" width="128" x="192" y="192"/><path d="m416 352-80 48-24-24v48h-112v-48l-24 24-80-48 10.66992-13.33008v-.01l21.33008-26.65992 24.76 14.85986 7.56007-11.33986c.43994-.66016.88989-1.32007 1.34985-1.97a95.45154 95.45154 0 0 1 64.59008-39.59 16.01093 16.01093 0 0 0 10.07007-5.62988v-.01a15.93851 15.93851 0 0 0 3.66992-10.2v-10.12012h32v10.12012a15.93851 15.93851 0 0 0 3.66992 10.2v.01c.08008.09985.16016.18994.24.27978a15.98113 15.98113 0 0 0 9.83009 5.3501 95.48841 95.48841 0 0 1 64.59009 39.59009c.46.6499.90991 1.30981 1.34985 1.97l7.56006 11.33977 24.76-14.85986z" fill="#8acce7"/><path d="m240 296 8 24h16l8-24-16-8z" fill="#e44b4d"/><path d="m248 320-8 56 16 16 16-16-8-56z" fill="#e44b4d"/><path d="m294.22 275.57007-14.22 28.42993-24-16 19.66992-19.66992c.08008.09985.16016.18994.24.27978a15.98113 15.98113 0 0 0 9.83008 5.35014q4.29016.6152 8.48 1.61007z" fill="#379ec3"/><path d="m256 288-24 16-14.22-28.42993q4.18506-.99024 8.48-1.61011a15.98113 15.98113 0 0 0 9.83008-5.3501c.07983-.08984.15991-.17993.24-.27978z" fill="#379ec3"/><path d="m275.66992 268.32007v.01l-19.66992 19.66993-19.66992-19.66992v-.01a16.024 16.024 0 0 0 3.66992-10.2v-10.12008h32v10.12012a16.024 16.024 0 0 0 3.66992 10.2z" fill="#f4ceaf"/><path d="m296 160v56a40 40 0 0 1 -40 40 40 40 0 0 1 -40-40v-56z" fill="#f4ceaf"/><path d="m192 154.16859v10.51772a27.31367 27.31367 0 0 0 8 19.31369 27.31367 27.31367 0 0 0 19.31368 8h28.68632a24 24 0 0 0 24-24 24 24 0 0 0 24 24h8v-24a16 16 0 0 0 -16-16 24 24 0 0 0 -24-24h-11.1556a24 24 0 0 0 -19.96919 10.68718l-1.20294 1.80442a13.08431 13.08431 0 0 1 -18.73737 3.20958 13.0843 13.0843 0 0 0 -20.9349 10.46741z" fill="#ad7d4d"/><path d="m168 112v104h-72v-104a15.97833 15.97833 0 0 1 16-16h40a15.99548 15.99548 0 0 1 16 16z" fill="#eebe33"/><path d="m96 112v104h-72v-104a15.99548 15.99548 0 0 1 16-16h40a15.99548 15.99548 0 0 1 16 16z" fill="#eedc9a"/><path d="m168 208v8h-72v-8a15.99548 15.99548 0 0 1 16-16h40a15.99548 15.99548 0 0 1 16 16z" fill="#efa702"/><path d="m96 208v8h-72v-8a15.99548 15.99548 0 0 1 16-16h40a15.97833 15.97833 0 0 1 16 16z" fill="#eebe33"/><path d="m488 160a71.97409 71.97409 0 1 1 -33.78027-61.03 71.712 71.712 0 0 1 33.78027 61.03z" fill="#8acce7"/><path d="m376 176 24 8-8 32-8.33984 8.33984a72.01161 72.01161 0 0 1 -9.94043-122.61984l34.28027 34.28-16 24h-16z" fill="#4ba477"/><path d="m488 160a71.712 71.712 0 0 1 -17.00977 46.48l-14.99023-22.48 8-24-8-8-16 8-8-24 22.21973-37.03a71.9646 71.9646 0 0 1 33.78027 61.03z" fill="#4ba477"/><circle cx="240" cy="208" r="8"/><circle cx="272" cy="208" r="8"/><path d="m478.81543 274.48633a32.10187 32.10187 0 0 0 -25.31152-1.09375l-10.61475 3.98047a23.983 23.983 0 0 0 -46.12256-12.97168l-4.17578 12.52929-14.7041 29.40723-16.22412 9.73438-3.32569-4.98829a103.60387 103.60387 0 0 0 -71.46777-45.041 8.04032 8.04032 0 0 1 -6.86914-7.91993v-.58057a48.24375 48.24375 0 0 0 21.24805-25.54248h2.75195a23.99787 23.99787 0 0 0 8-46.62378v-17.37622a24.04407 24.04407 0 0 0 -16.74414-22.87891 32.05618 32.05618 0 0 0 -31.25586-25.12109h-11.15527a31.93614 31.93614 0 0 0 -26.625 14.24805l-1.20411 1.80566a5.084 5.084 0 0 1 -7.28027 1.24805 21.08406 21.08406 0 0 0 -33.73535 16.86724v10.51757a35.05989 35.05989 0 0 0 9.56494 24.1543 23.99034 23.99034 0 0 0 14.43506 43.15913h2.752a48.24375 48.24375 0 0 0 21.248 25.54248v.58057a8.04032 8.04032 0 0 1 -6.86914 7.91992 103.60387 103.60387 0 0 0 -71.46777 45.041l-3.32569 4.98829-16.22412-9.73438-14.7041-29.40723-4.17578-12.52832a23.98251 23.98251 0 0 0 -46.12256 12.97071l-10.61475-3.98047a32.37774 32.37774 0 0 0 -42.08593 20.07813 7.99973 7.99973 0 0 0 4.34082 9.83985l70.64257 31.39645 4.55274 4.55322-6.19336 7.7417a8.001 8.001 0 0 0 2.13086 11.8584l80 48a8.00242 8.00242 0 0 0 9.77344-1.20312l10.34277-10.34275v28.68555h16v-64h-16v12.68555l-17.24023 17.24121-66.79493-40.07715 21.91407-27.39261 34.00488 20.40332 8.23242-13.7207-8.0437-4.82617 2.90308-4.3545a87.59882 87.59882 0 0 1 46.59253-34.93408l11.27661 22.55322a7.99882 7.99882 0 0 0 11.59277 3.07813l.012-.00781 3.36353 10.08984-7.73291 54.12988a8.00468 8.00468 0 0 0 2.26269 6.78907l16 16a8.00181 8.00181 0 0 0 11.31446 0l16-16a8.00468 8.00468 0 0 0 2.26269-6.78907l-7.73296-54.12985 3.36377-10.08984.01172.00781a7.99882 7.99882 0 0 0 11.59277-3.07813l11.27637-22.55322a87.59755 87.59755 0 0 1 46.59278 34.9341l2.90332 4.3545-8.04394 4.82617 8.23242 13.7207 34.00488-20.40337 21.91407 27.39258-66.79493 40.07715-17.24023-17.24118v-12.68555h-16v64h16v-28.68555l10.34277 10.34278a8.00242 8.00242 0 0 0 9.77344 1.20312l80-48a8.001 8.001 0 0 0 2.13086-11.8584l-6.19336-7.7417 4.55274-4.55322 70.64255-31.39648a7.99973 7.99973 0 0 0 4.34082-9.83985 32.10639 32.10639 0 0 0 -16.77439-18.98437zm-377.1582 47.85644a7.9924 7.9924 0 0 0 -2.40821-1.65332l-63.88476-28.39355a16.41275 16.41275 0 0 1 4.71-3.36914 16.2489 16.2489 0 0 1 12.80469-.55371l40.3125 15.11718 5.61718-14.98046-11.51463-4.31788-2.56646-10.26709a7.98723 7.98723 0 0 1 15.32617-4.46289l4.35645 13.06836a8.1648 8.1648 0 0 0 .43457 1.04785l13.71045 27.4209-12.55176 15.68998zm154.34277-45.65625-9.72314-9.72363a23.75316 23.75316 0 0 0 1.147-3.7456 47.376 47.376 0 0 0 17.15234 0 23.77942 23.77942 0 0 0 1.147 3.7456zm48-60.68652v-16a8 8 0 0 1 0 16zm-104-61.831a5.08433 5.08433 0 0 1 8.13477-4.06739 21.08518 21.08518 0 0 0 30.19238-5.1709l1.2041-1.80566a15.97015 15.97015 0 0 1 13.31348-7.12505h11.15527a16.01833 16.01833 0 0 1 16 16 8.00039 8.00039 0 0 0 8 8 8.00917 8.00917 0 0 1 8 8v16a16.01833 16.01833 0 0 1 -16-16 8 8 0 0 0 -16 0 16.01833 16.01833 0 0 1 -16 16h-28.68652a19.315 19.315 0 0 1 -19.31348-19.31348zm0 53.831a8.00917 8.00917 0 0 1 8-8v16a8.00917 8.00917 0 0 1 -8-8zm24-8h24a31.93544 31.93544 0 0 0 24-10.85547 32.046 32.046 0 0 0 16 9.832v17.02347a32 32 0 0 1 -64 0zm5.66431 81.43994a23.74387 23.74387 0 0 0 6.05786-2.40332l7.72021 7.72022-8.33984 5.55957zm26.33569 99.24658-7.51465-7.51464 6.45337-45.17188h2.1228l6.45313 45.17188zm2.23438-68.68652h-4.46876l-3.5166-10.55127 5.751-3.8335 5.751 3.8335zm18.66308-19.68359-8.33984-5.55957 7.72021-7.72022a23.74544 23.74544 0 0 0 6.05811 2.40332zm135.85352 28.373a7.9924 7.9924 0 0 0 -2.40821 1.65332l-4.34619 4.34619-12.55176-15.68992 13.71045-27.4209a8.1648 8.1648 0 0 0 .43457-1.04785l4.35645-13.06933a7.98741 7.98741 0 0 1 15.32617 4.46386l-2.56641 10.26709-11.51464 4.31788 5.61718 14.98046 40.3125-15.11718a16.24528 16.24528 0 0 1 12.80469.55371 16.41275 16.41275 0 0 1 4.71 3.36914z"/><path d="m24 224h144a8.00039 8.00039 0 0 0 8-8v-104a24.0275 24.0275 0 0 0 -24-24h-40a23.905 23.905 0 0 0 -16 6.126 23.905 23.905 0 0 0 -16-6.126h-40a24.0275 24.0275 0 0 0 -24 24v104a8.00039 8.00039 0 0 0 8 8zm80-16a8.00917 8.00917 0 0 1 8-8h40a8.00917 8.00917 0 0 1 8 8zm8-104h40a8.00917 8.00917 0 0 1 8 8v73.37622a23.88238 23.88238 0 0 0 -8-1.37622h-40a23.8538 23.8538 0 0 0 -8 1.39478v-73.39478a8.00917 8.00917 0 0 1 8-8zm-72 0h40a8.00917 8.00917 0 0 1 8 8v73.39478a23.8538 23.8538 0 0 0 -8-1.39478h-40a23.88238 23.88238 0 0 0 -8 1.37622v-73.37622a8.00917 8.00917 0 0 1 8-8zm0 96h40a8.00917 8.00917 0 0 1 8 8h-56a8.00917 8.00917 0 0 1 8-8z"/><path d="m48 112h32v16h-32z"/><path d="m40 136h40v16h-40z"/><path d="m40 160h32v16h-32z"/><path d="m120 112h32v16h-32z"/><path d="m112 136h40v16h-40z"/><path d="m112 160h32v16h-32z"/><path d="m416 240a80 80 0 1 0 -80-80 80.09041 80.09041 0 0 0 80 80zm64-80a63.59094 63.59094 0 0 1 -8.81348 32.354l-6.35937-9.53662 6.76269-20.28711a8.00185 8.00185 0 0 0 -1.93261-8.1875l-8-8a8.00182 8.00182 0 0 0 -9.23535-1.498l-7.749 3.875-3.91992-11.75879 15.84131-26.40088a63.8977 63.8977 0 0 1 23.40573 49.4399zm-36.94043-57.97925-17.91895 29.863a8.00054 8.00054 0 0 0 -.73046 6.64648l8 24a8.00149 8.00149 0 0 0 11.168 4.625l10.8418-5.42089.42676.42675-6.43652 19.3086a8.0051 8.0051 0 0 0 .93359 6.96875l11.46777 17.198a63.83236 63.83236 0 0 1 -62.91015 15.741 7.99831 7.99831 0 0 0 1.85937-3.437l8-32a8.00026 8.00026 0 0 0 -5.23047-9.53027l-18.53031-6.17579v-2.23438h8a7.99943 7.99943 0 0 0 6.65625-3.5625l16-24a8.00082 8.00082 0 0 0 -.999-10.09473l-27.126-27.12622a63.79622 63.79622 0 0 1 56.52832-1.1958zm-69.88672 10.46655 24.5332 24.53223-9.9873 14.98047h-11.71875a8.00039 8.00039 0 0 0 -8 8v16a8.00026 8.00026 0 0 0 5.46973 7.58984l16.97265 5.65723-5.666 22.66309-2.47022 2.46972a63.92148 63.92148 0 0 1 -9.1333-101.89258z"/></g></svg>