<?xml version="1.0" encoding="iso-8859-1"?>
<!-- Generator: Adobe Illustrator 19.0.0, SVG Export Plug-In . SVG Version: 6.00 Build 0)  -->
<svg version="1.1" id="Capa_1" xmlns="http://www.w3.org/2000/svg" xmlns:xlink="http://www.w3.org/1999/xlink" x="0px" y="0px"
	 viewBox="0 0 496 496" style="enable-background:new 0 0 496 496;" xml:space="preserve">
<path style="fill:#39C3FC;" d="M224,432H8V64h216c13.256,0,24,10.744,24,24v320C248,421.256,237.256,432,224,432z"/>
<path style="fill:#148CE0;" d="M224,408H8v24h216c13.256,0,24-10.744,24-24v-24C248,397.256,237.256,408,224,408z"/>
<path style="fill:#39C3FC;" d="M272,432h216V64H272c-13.256,0-24,10.744-24,24v320C248,421.256,258.744,432,272,432z"/>
<path style="fill:#148CE0;" d="M248,384v24c0,13.256,10.744,24,24,24h216v-24H272C258.744,408,248,397.256,248,384z"/>
<circle style="fill:#ECECEC;" cx="128" cy="184" r="88"/>
<rect x="40" y="320" style="fill:#FCD770;" width="176" height="64"/>
<path style="fill:#D3A06C;" d="M368,96c-35.344,0-64,28.656-64,64v104h128V160C432,124.656,403.344,96,368,96z"/>
<path style="fill:#F9E0A6;" d="M328,168v32c0,22.088,17.912,40,40,40s40-17.912,40-40v-32H328z"/>
<path style="fill:#48C397;" d="M450.936,284.544c-1.784-12.496-10.752-22.776-22.888-26.24L392,248v-16h-48v16l-36.048,10.296
	c-12.136,3.472-21.104,13.744-22.888,26.24L280,320h176L450.936,284.544z"/>
<path d="M272,56c-9.6,0-18.128,4.336-24,11.056C242.128,60.336,233.6,56,224,56H0v384h224c9.6,0,18.128-4.336,24-11.056
	c5.872,6.72,14.4,11.056,24,11.056h224V56H272z M224,424H16V72h208c8.824,0,16,7.176,16,16v320C240,416.824,232.824,424,224,424z
	 M480,424H272c-8.824,0-16-7.176-16-16V88c0-8.824,7.176-16,16-16h208V424z"/>
<path d="M128,88c-52.936,0-96,43.064-96,96s43.064,96,96,96s96-43.064,96-96S180.936,88,128,88z M150.792,134.216
	C143.648,135.296,136,136,128,136c-7.984,0-15.624-0.704-22.752-1.776c8.16-12.344,17.232-21.984,22.76-27.352
	C133.544,112.232,142.624,121.864,150.792,134.216z M127.992,261.128c-5.536-5.36-14.616-14.992-22.784-27.344
	C112.352,232.704,120,232,128,232c7.984,0,15.624,0.704,22.752,1.776C142.592,246.12,133.52,255.76,127.992,261.128z M128,216
	c-11.2,0-21.736,1.2-31.224,2.936c-4.024-8.376-7.136-17.44-8.28-26.936h79.008c-1.144,9.488-4.272,18.552-8.304,26.936
	C149.712,217.2,139.192,216,128,216z M88.496,176c1.144-9.488,4.272-18.552,8.304-26.936C106.288,150.8,116.808,152,128,152
	c11.2,0,21.736-1.2,31.224-2.936c4.024,8.376,7.136,17.44,8.28,26.936H88.496z M88.392,130.84c-5.96-1.504-11.2-3.136-15.536-4.656
	c9.136-8.712,20.296-15.288,32.72-18.928C100.008,113.688,93.888,121.688,88.392,130.84z M80.808,145.448
	c-4.192,9.456-7.288,19.72-8.344,30.552H48.408c1.352-13.544,6.088-26.104,13.36-36.816
	C66.576,141.064,73.048,143.336,80.808,145.448z M72.464,192c1.056,10.832,4.152,21.096,8.344,30.552
	c-7.76,2.112-14.232,4.384-19.04,6.264C54.496,218.104,49.76,205.544,48.408,192H72.464z M88.392,237.16
	c5.496,9.152,11.616,17.152,17.192,23.584c-12.432-3.64-23.592-10.216-32.72-18.928C77.192,240.296,82.432,238.664,88.392,237.16z
	 M167.608,237.16c5.96,1.504,11.2,3.136,15.536,4.656c-9.136,8.712-20.296,15.288-32.72,18.928
	C155.992,254.312,162.112,246.312,167.608,237.16z M175.192,222.552c4.192-9.456,7.288-19.72,8.344-30.552h24.056
	c-1.352,13.544-6.088,26.104-13.36,36.816C189.424,226.936,182.952,224.664,175.192,222.552z M183.536,176
	c-1.056-10.832-4.152-21.096-8.344-30.552c7.76-2.112,14.232-4.384,19.04-6.264c7.272,10.712,12.008,23.272,13.36,36.816H183.536z
	 M167.608,130.84c-5.496-9.152-11.616-17.152-17.192-23.584c12.432,3.64,23.592,10.216,32.72,18.928
	C178.808,127.704,173.568,129.336,167.608,130.84z"/>
<path d="M32,392h192v-80H32V392z M48,328h160v48H48V328z"/>
<rect x="120" y="344" width="16" height="16"/>
<rect x="80" y="344" width="16" height="16"/>
<rect x="160" y="344" width="16" height="16"/>
<path d="M465.224,328l-6.368-44.592c-1.712-12-8.792-22.344-18.848-28.472V160c0-39.704-32.304-72-72-72s-72,32.296-72,72v94.936
	c-10.064,6.128-17.136,16.472-18.848,28.472L270.776,328H465.224z M368,104c30.88,0,56,25.128,56,56v88.816l-24-6.848v-6.288
	c9.792-8.792,16-21.504,16-35.68v-40h-16v8h-64v-8h-16v40c0,14.168,6.208,26.88,16,35.68v6.296l-24,6.848V160
	C312,129.128,337.12,104,368,104z M336,200v-16h64v16c0,17.648-14.352,32-32,32S336,217.648,336,200z M292.984,285.672
	c1.336-9.36,8.08-17.088,17.168-19.68L352,254.032V245.2c5.016,1.784,10.384,2.8,16,2.8s10.984-1.024,16-2.8v8.832l41.848,11.96
	c9.088,2.592,15.832,10.32,17.168,19.68l3.76,26.328H289.224L292.984,285.672z"/>
<rect x="280" y="344" width="176" height="16"/>
<rect x="376" y="376" width="80" height="16"/>
<rect x="280" y="376" width="80" height="16"/>
<g>
</g>
<g>
</g>
<g>
</g>
<g>
</g>
<g>
</g>
<g>
</g>
<g>
</g>
<g>
</g>
<g>
</g>
<g>
</g>
<g>
</g>
<g>
</g>
<g>
</g>
<g>
</g>
<g>
</g>
</svg>
