<svg id="Layer_1" enable-background="new 0 0 512.001 512.001" height="512" viewBox="0 0 512.001 512.001" width="512" xmlns="http://www.w3.org/2000/svg"><g><g clip-rule="evenodd" fill-rule="evenodd"><path d="m256.001 55c12.426 0 22.5-10.073 22.5-22.5s-10.074-22.5-22.5-22.5c-12.427 0-22.5 10.074-22.5 22.5s10.073 22.5 22.5 22.5z" fill="#ff5d7d"/><path d="m261.306 89.794c-3.158 4.567-7.781 4.092-10.611 0-7.878-11.394-20.77-11.394-28.648 0-21.404 30.955 19.802 77.053 33.953 82.537 14.152-5.484 55.357-51.582 33.953-82.537-7.877-11.393-20.769-11.393-28.647 0z" fill="#ff5d7d"/><circle cx="97.962" cy="97.962" fill="#cbe558" r="22.5"/><path d="m142.227 134.724c.996 5.462-2.609 8.396-7.503 7.503-13.627-2.486-22.743 6.63-20.257 20.257 6.754 37.023 68.486 40.483 82.371 34.354 6.129-13.885 2.67-75.617-34.354-82.371-13.627-2.487-22.743 6.629-20.257 20.257z" fill="#cbe558"/><circle cx="32.5" cy="256.001" fill="#60a4ff" r="22.5"/><path d="m89.794 250.695c4.567 3.158 4.092 7.781 0 10.611-11.394 7.878-11.394 20.77 0 28.648 30.955 21.404 77.053-19.802 82.537-33.953-5.484-14.152-51.582-55.357-82.537-33.953-11.393 7.877-11.393 20.769 0 28.647z" fill="#60a4ff"/><path d="m196.837 315.164c-13.885-6.129-75.617-2.67-82.371 34.354-2.486 13.627 6.63 22.743 20.257 20.257 5.462-.996 8.396 2.609 7.503 7.503-2.486 13.627 6.63 22.743 20.257 20.257 37.024-6.754 40.483-68.487 34.354-82.371z" fill="#8690af"/><circle cx="97.962" cy="414.04" fill="#8690af" r="22.5"/><path d="m256.001 339.67c-14.152 5.484-55.357 51.582-33.953 82.537 7.878 11.394 20.77 11.394 28.648 0 3.158-4.567 7.781-4.092 10.611 0 7.878 11.394 20.77 11.394 28.648 0 21.403-30.955-19.803-77.053-33.954-82.537z" fill="#ffc144"/><circle cx="256.001" cy="479.502" fill="#ffc144" r="22.5"/><path d="m315.164 315.164c-6.129 13.885-2.67 75.617 34.354 82.371 13.627 2.486 22.743-6.63 20.257-20.257-.996-5.462 2.609-8.396 7.503-7.503 13.628 2.486 22.743-6.63 20.257-20.257-6.754-37.023-68.487-40.483-82.371-34.354z" fill="#c68a65"/><circle cx="414.04" cy="414.04" fill="#c68a65" r="22.5"/><path d="m339.67 256.001c5.484 14.152 51.582 55.357 82.537 33.953 11.394-7.878 11.394-20.77 0-28.648-4.567-3.158-4.092-7.781 0-10.611 11.394-7.878 11.394-20.77 0-28.648-30.955-21.403-77.053 19.802-82.537 33.954z" fill="#fff"/><circle cx="479.502" cy="256.001" fill="#fff" r="22.5"/><g fill="#66e0f7"><circle cx="414.04" cy="97.962" r="22.5"/><path d="m397.535 162.484c2.486-13.627-6.63-22.743-20.257-20.257-5.462.996-8.396-2.609-7.503-7.503 2.486-13.628-6.63-22.743-20.257-20.257-37.023 6.754-40.483 68.486-34.354 82.371 13.885 6.128 75.617 2.669 82.371-34.354z"/></g></g><g><path d="m252.387 181.655c1.162.451 2.388.676 3.613.676s2.451-.225 3.613-.675c12.434-4.818 35.598-28.431 43.597-54.465 4.983-16.219 3.243-31.117-5.031-43.083-5.65-8.171-13.869-12.858-22.549-12.858-7.273 0-14.225 3.292-19.627 9.189-5.389-5.89-12.348-9.189-19.631-9.189 0 0 0 0-.001 0-8.68 0-16.899 4.687-22.55 12.858-8.273 11.966-10.014 26.864-5.03 43.083 7.998 26.034 31.162 49.646 43.596 54.464zm-22.114-86.173c1.859-2.69 4.083-4.233 6.099-4.233 2.017 0 4.238 1.542 6.099 4.232 3.322 4.807 8.267 7.563 13.563 7.563h.001c5.255 0 10.175-2.757 13.497-7.562 1.859-2.69 4.083-4.233 6.099-4.233s4.239 1.543 6.099 4.233c4.732 6.844 5.527 15.536 2.363 25.834-5.339 17.376-19.934 33.577-28.092 39.544-8.157-5.967-22.753-22.168-28.091-39.544-3.165-10.298-2.37-18.99 2.363-25.834z"/><path d="m256 65c17.921 0 32.501-14.58 32.501-32.5s-14.58-32.5-32.501-32.5-32.5 14.58-32.5 32.5 14.579 32.5 32.5 32.5zm0-45c6.893 0 12.501 5.607 12.501 12.5s-5.608 12.5-12.501 12.5-12.5-5.607-12.5-12.5 5.608-12.5 12.5-12.5z"/><path d="m111.482 139.242c-6.138 6.138-8.636 15.264-6.853 25.037 2.61 14.312 11.915 26.077 26.906 34.021 14.806 7.847 33.022 10.986 47.689 10.986 9.173 0 16.957-1.228 21.65-3.3 2.281-1.007 4.104-2.83 5.11-5.11 5.385-12.199 5.067-45.275-7.686-69.341-7.945-14.992-19.71-24.296-34.021-26.907-9.779-1.782-18.9.716-25.037 6.853-5.144 5.144-7.731 12.386-7.38 20.376-7.974-.352-15.228 2.235-20.378 7.385zm36.385 8.579c3.716-3.715 5.245-9.143 4.197-14.893-.587-3.217-.106-5.879 1.319-7.305s4.087-1.907 7.305-1.319c8.186 1.493 14.895 7.077 19.939 16.596 8.512 16.062 9.646 37.838 8.098 47.826-9.988 1.548-31.764.414-47.825-8.099-9.52-5.045-15.103-11.753-16.596-19.939-.587-3.217-.106-5.88 1.319-7.305 1.026-1.027 2.696-1.564 4.754-1.564.797 0 1.652.081 2.551.245 5.745 1.046 11.193-.498 14.939-4.243z"/><path d="m97.962 130.462c8.681 0 16.843-3.381 22.98-9.519 6.139-6.138 9.52-14.3 9.52-22.981s-3.381-16.843-9.52-22.981c-6.138-6.139-14.3-9.519-22.98-9.519s-16.843 3.38-22.981 9.519c-6.139 6.139-9.52 14.3-9.52 22.981s3.381 16.843 9.52 22.981 14.3 9.519 22.981 9.519zm-8.839-41.339c2.36-2.361 5.5-3.661 8.839-3.661s6.478 1.3 8.838 3.661c2.361 2.361 3.661 5.5 3.661 8.839s-1.3 6.478-3.661 8.839c-2.36 2.361-5.499 3.661-8.838 3.661s-6.478-1.3-8.839-3.662c-2.361-2.361-3.661-5.5-3.661-8.838s1.3-6.478 3.661-8.839z"/><path d="m71.249 275.629c0 8.681 4.687 16.899 12.857 22.55 7.509 5.192 16.17 7.811 25.59 7.811 5.591 0 11.451-.923 17.492-2.779 26.035-7.998 49.648-31.163 54.467-43.596.901-2.325.901-4.902 0-7.228-4.818-12.434-28.432-35.598-54.467-43.596-16.218-4.983-31.116-3.242-43.082 5.031-8.171 5.65-12.857 13.869-12.857 22.549 0 7.274 3.291 14.224 9.189 19.627-5.889 5.389-9.189 12.348-9.189 19.631zm24.232-6.097c4.807-3.323 7.563-8.267 7.563-13.564 0-5.255-2.757-10.174-7.563-13.497-2.689-1.86-4.232-4.083-4.232-6.099s1.543-4.239 4.232-6.099c6.845-4.732 15.537-5.527 25.834-2.363 17.376 5.338 33.577 19.934 39.545 28.092-5.968 8.158-22.169 22.753-39.545 28.091-10.3 3.165-18.99 2.368-25.834-2.363-2.689-1.86-4.232-4.083-4.232-6.099 0-2.017 1.542-4.24 4.232-6.099z"/><path d="m32.5 223.501c-17.921 0-32.5 14.58-32.5 32.5s14.579 32.5 32.5 32.5 32.5-14.58 32.5-32.5-14.579-32.5-32.5-32.5zm0 45c-6.893 0-12.5-5.607-12.5-12.5s5.607-12.5 12.5-12.5 12.5 5.607 12.5 12.5-5.607 12.5-12.5 12.5z"/><path d="m205.986 311.125c-1.007-2.281-2.829-4.103-5.11-5.11-12.195-5.384-45.273-5.066-69.34 7.686-14.992 7.945-24.296 19.709-26.907 34.022-1.782 9.773.716 18.899 6.854 25.037 5.144 5.144 12.381 7.728 20.377 7.38-.354 7.975 2.232 15.229 7.383 20.379 4.839 4.839 11.535 7.416 18.941 7.416 1.987 0 4.027-.186 6.096-.563 14.312-2.611 26.076-11.915 34.021-26.906 12.752-24.065 13.069-57.142 7.685-69.341zm-25.358 59.976c-5.045 9.519-11.754 15.103-19.939 16.596-3.218.585-5.88.105-7.305-1.319-1.426-1.426-1.906-4.088-1.319-7.305 0 0 0 0 0-.001 1.048-5.748-.499-11.192-4.244-14.938-2.948-2.948-6.974-4.52-11.383-4.52-1.147 0-2.321.106-3.509.323-3.218.587-5.881.106-7.306-1.319s-1.906-4.088-1.319-7.306c1.493-8.186 7.077-14.894 16.597-19.938 16.063-8.513 37.841-9.646 47.825-8.099 1.549 9.988.414 31.764-8.098 47.826z"/><path d="m97.962 381.54c-8.681 0-16.843 3.38-22.981 9.519s-9.52 14.3-9.52 22.981 3.381 16.843 9.52 22.981 14.301 9.519 22.981 9.519 16.843-3.38 22.98-9.519c6.139-6.139 9.52-14.3 9.52-22.981s-3.381-16.843-9.52-22.98c-6.137-6.14-14.299-9.52-22.98-9.52zm8.838 41.339c-2.36 2.361-5.499 3.661-8.838 3.661s-6.479-1.3-8.839-3.661c-2.361-2.361-3.661-5.5-3.661-8.839s1.3-6.478 3.661-8.838c2.36-2.361 5.5-3.661 8.839-3.661s6.478 1.3 8.838 3.661c2.361 2.361 3.661 5.5 3.661 8.838s-1.3 6.478-3.661 8.839z"/><path d="m259.614 330.346c-2.324-.9-4.902-.901-7.227 0-12.433 4.818-35.598 28.431-43.596 54.465-4.983 16.218-3.243 31.116 5.03 43.083 5.651 8.171 13.87 12.858 22.55 12.858 7.273 0 14.225-3.292 19.627-9.189 5.389 5.89 12.348 9.189 19.631 9.189h.001c8.68 0 16.899-4.687 22.55-12.858 8.273-11.967 10.014-26.865 5.03-43.084-7.999-26.034-31.164-49.646-43.596-54.464zm22.115 86.174c-1.859 2.69-4.083 4.233-6.099 4.233-2.017 0-4.239-1.542-6.099-4.232-3.323-4.806-8.267-7.563-13.564-7.563-5.255 0-10.175 2.757-13.497 7.562-1.859 2.69-4.083 4.233-6.099 4.233s-4.239-1.543-6.099-4.233c-4.732-6.844-5.527-15.536-2.363-25.834 5.338-17.376 19.934-33.577 28.091-39.544 8.158 5.967 22.753 22.167 28.092 39.543 3.164 10.298 2.369 18.991-2.363 25.835z"/><path d="m256 447.001c-17.921 0-32.5 14.58-32.5 32.5s14.579 32.5 32.5 32.5 32.5-14.58 32.5-32.5-14.579-32.5-32.5-32.5zm0 45c-6.893 0-12.5-5.607-12.5-12.5s5.607-12.5 12.5-12.5 12.5 5.607 12.5 12.5-5.607 12.5-12.5 12.5z"/><path d="m400.52 372.76c6.138-6.138 8.636-15.263 6.854-25.037-2.611-14.313-11.915-26.077-26.907-34.022-24.065-12.753-57.142-13.07-69.34-7.686-2.281 1.007-4.104 2.829-5.11 5.11-5.385 12.199-5.067 45.276 7.686 69.341 7.945 14.992 19.71 24.296 34.021 26.907 2.068.377 4.107.563 6.095.563 7.407 0 14.104-2.577 18.942-7.416 5.144-5.144 7.731-12.386 7.38-20.376 7.989.348 15.228-2.233 20.379-7.384zm-21.447-12.822c-5.746-1.049-11.192.497-14.938 4.243-3.716 3.715-5.245 9.143-4.197 14.893.587 3.217.106 5.879-1.319 7.305-1.426 1.425-4.088 1.906-7.305 1.319-8.186-1.493-14.895-7.077-19.939-16.596-8.513-16.063-9.647-37.839-8.098-47.826 9.989-1.547 31.763-.414 47.825 8.099 9.52 5.045 15.104 11.753 16.597 19.938.587 3.218.105 5.881-1.319 7.306-1.428 1.424-4.091 1.904-7.307 1.319z"/><path d="m414.039 381.54c-8.681 0-16.843 3.38-22.98 9.519-6.139 6.138-9.52 14.3-9.52 22.981s3.381 16.843 9.52 22.981c6.138 6.139 14.3 9.519 22.98 9.519s16.843-3.38 22.981-9.519c6.139-6.139 9.52-14.3 9.52-22.981s-3.381-16.843-9.52-22.981-14.3-9.519-22.981-9.519zm8.839 41.338c-2.36 2.361-5.5 3.661-8.839 3.661s-6.478-1.3-8.838-3.661c-2.361-2.361-3.661-5.5-3.661-8.839s1.3-6.478 3.661-8.839c2.36-2.361 5.499-3.661 8.838-3.661s6.479 1.3 8.839 3.661c2.361 2.361 3.661 5.5 3.661 8.838s-1.299 6.48-3.661 8.84z"/><path d="m440.752 236.372c0-8.681-4.686-16.899-12.857-22.55-11.966-8.274-26.863-10.016-43.082-5.031-26.035 7.998-49.648 31.163-54.467 43.596-.901 2.325-.901 4.902 0 7.228 4.818 12.434 28.433 35.598 54.467 43.596 6.042 1.856 11.9 2.779 17.492 2.779 9.418 0 18.082-2.62 25.59-7.811 8.171-5.65 12.857-13.869 12.857-22.549 0-7.275-3.291-14.225-9.189-19.627 5.889-5.389 9.189-12.348 9.189-19.631zm-24.231 6.098c-4.807 3.323-7.563 8.267-7.563 13.564 0 5.255 2.757 10.174 7.563 13.497 2.689 1.86 4.232 4.083 4.232 6.099s-1.543 4.239-4.232 6.099c-6.843 4.733-15.535 5.527-25.834 2.364-17.376-5.338-33.577-19.934-39.545-28.092 5.968-8.158 22.169-22.754 39.545-28.092 10.3-3.163 18.99-2.368 25.834 2.363 2.689 1.86 4.232 4.083 4.232 6.099-.001 2.016-1.544 4.239-4.232 6.099z"/><path d="m479.501 223.501c-17.921 0-32.5 14.58-32.5 32.5s14.579 32.5 32.5 32.5 32.5-14.58 32.5-32.5-14.579-32.5-32.5-32.5zm0 45c-6.893 0-12.5-5.607-12.5-12.5s5.607-12.5 12.5-12.5 12.5 5.607 12.5 12.5-5.607 12.5-12.5 12.5z"/><path d="m306.016 200.876c1.007 2.28 2.829 4.103 5.11 5.11 4.693 2.072 12.476 3.3 21.65 3.3 14.666-.001 32.885-3.14 47.689-10.985 14.992-7.945 24.296-19.709 26.907-34.022 1.782-9.774-.716-18.899-6.854-25.037-5.145-5.143-12.378-7.729-20.377-7.38.354-7.976-2.232-15.229-7.383-20.38-6.138-6.138-15.262-8.636-25.037-6.853-14.312 2.611-26.076 11.915-34.021 26.906-12.752 24.065-13.069 57.142-7.684 69.341zm25.357-59.976c5.045-9.519 11.754-15.103 19.939-16.596 3.217-.586 5.879-.105 7.305 1.319 1.426 1.426 1.906 4.088 1.319 7.305v.001c-1.048 5.748.499 11.193 4.245 14.938 3.715 3.715 9.141 5.244 14.891 4.196 3.216-.589 5.88-.107 7.306 1.319 1.425 1.426 1.906 4.088 1.319 7.306-1.493 8.186-7.077 14.894-16.597 19.938-16.063 8.513-37.841 9.646-47.825 8.099-1.548-9.987-.413-31.763 8.098-47.825z"/><path d="m414.039 65.462c-8.681 0-16.843 3.38-22.98 9.519-6.139 6.139-9.52 14.3-9.52 22.981s3.381 16.843 9.52 22.98c6.138 6.139 14.3 9.52 22.98 9.52s16.843-3.381 22.981-9.519 9.52-14.3 9.52-22.981-3.381-16.843-9.52-22.981c-6.138-6.139-14.3-9.519-22.981-9.519zm8.839 41.338c-2.361 2.361-5.5 3.662-8.839 3.662s-6.478-1.3-8.838-3.662c-2.361-2.361-3.661-5.5-3.661-8.838s1.3-6.478 3.661-8.839c2.36-2.361 5.499-3.661 8.838-3.661s6.479 1.3 8.839 3.661c2.361 2.361 3.661 5.5 3.661 8.839s-1.299 6.477-3.661 8.838z"/><path d="m256.008 202.333h-.008c-5.522 0-9.996 4.477-9.996 10s4.481 10 10.004 10 10-4.477 10-10-4.477-10-10-10z"/><path d="m202.332 255.993v.008c0 5.523 4.478 9.996 10 9.996s10-4.481 10-10.004-4.478-10-10-10-10 4.477-10 10z"/><path d="m255.993 289.669c-5.522 0-10 4.477-10 10s4.478 10 10 10h.007c5.522 0 9.997-4.477 9.997-10s-4.481-10-10.004-10z"/><path d="m299.669 246.004c-5.522 0-10 4.481-10 10.004s4.478 10 10 10 10-4.477 10-10v-.007c0-5.523-4.477-9.997-10-9.997z"/></g></g></svg>